<mxfile host="app.diagrams.net" agent="Mozilla/5.0 (Macintosh; Intel Mac OS X 10_15_7) AppleWebKit/537.36 (KHTML, like Gecko) Chrome/128.0.0.0 Safari/537.36" version="24.7.16">
  <diagram name="第 1 页" id="KzfT53D-ZP4mc_7cOF-B">
    <mxGraphModel dx="954" dy="605" grid="1" gridSize="10" guides="1" tooltips="1" connect="1" arrows="1" fold="1" page="1" pageScale="1" pageWidth="827" pageHeight="1169" math="0" shadow="0">
      <root>
        <mxCell id="0" />
        <mxCell id="1" parent="0" />
        <mxCell id="AdT45wlRLXkSQNVpqV4I-115" value="" style="shape=table;startSize=0;container=1;collapsible=0;childLayout=tableLayout;labelBackgroundColor=none;rounded=1;top=1;" vertex="1" parent="1">
          <mxGeometry x="90" y="220" width="240" height="120" as="geometry" />
        </mxCell>
        <mxCell id="AdT45wlRLXkSQNVpqV4I-116" value="" style="shape=tableRow;horizontal=0;startSize=0;swimlaneHead=0;swimlaneBody=0;top=1;left=0;bottom=0;right=0;collapsible=0;dropTarget=0;fillColor=none;points=[[0,0.5],[1,0.5]];portConstraint=eastwest;labelBackgroundColor=none;rounded=1;" vertex="1" parent="AdT45wlRLXkSQNVpqV4I-115">
          <mxGeometry width="240" height="40" as="geometry" />
        </mxCell>
        <mxCell id="AdT45wlRLXkSQNVpqV4I-117" value="" style="shape=partialRectangle;html=1;whiteSpace=wrap;connectable=0;overflow=hidden;fillColor=#f8cecc;top=1;left=1;bottom=1;right=1;pointerEvents=1;labelBackgroundColor=none;rounded=1;strokeColor=#b85450;" vertex="1" parent="AdT45wlRLXkSQNVpqV4I-116">
          <mxGeometry width="60" height="40" as="geometry">
            <mxRectangle width="60" height="40" as="alternateBounds" />
          </mxGeometry>
        </mxCell>
        <mxCell id="AdT45wlRLXkSQNVpqV4I-118" value="" style="shape=partialRectangle;html=1;whiteSpace=wrap;connectable=0;overflow=hidden;fillColor=#d5e8d4;top=1;left=1;bottom=1;right=1;pointerEvents=1;labelBackgroundColor=none;rounded=1;strokeColor=#82b366;" vertex="1" parent="AdT45wlRLXkSQNVpqV4I-116">
          <mxGeometry x="60" width="60" height="40" as="geometry">
            <mxRectangle width="60" height="40" as="alternateBounds" />
          </mxGeometry>
        </mxCell>
        <mxCell id="AdT45wlRLXkSQNVpqV4I-119" value="" style="shape=partialRectangle;html=1;whiteSpace=wrap;connectable=0;overflow=hidden;fillColor=#d5e8d4;top=1;left=1;bottom=1;right=1;pointerEvents=1;labelBackgroundColor=none;rounded=1;strokeColor=#82b366;" vertex="1" parent="AdT45wlRLXkSQNVpqV4I-116">
          <mxGeometry x="120" width="60" height="40" as="geometry">
            <mxRectangle width="60" height="40" as="alternateBounds" />
          </mxGeometry>
        </mxCell>
        <mxCell id="AdT45wlRLXkSQNVpqV4I-120" value="" style="shape=partialRectangle;html=1;whiteSpace=wrap;connectable=0;overflow=hidden;fillColor=#f8cecc;top=1;left=1;bottom=1;right=1;pointerEvents=1;labelBackgroundColor=none;rounded=1;strokeColor=#b85450;" vertex="1" parent="AdT45wlRLXkSQNVpqV4I-116">
          <mxGeometry x="180" width="60" height="40" as="geometry">
            <mxRectangle width="60" height="40" as="alternateBounds" />
          </mxGeometry>
        </mxCell>
        <mxCell id="AdT45wlRLXkSQNVpqV4I-121" value="" style="shape=tableRow;horizontal=0;startSize=0;swimlaneHead=0;swimlaneBody=0;top=1;left=0;bottom=0;right=0;collapsible=0;dropTarget=0;fillColor=none;points=[[0,0.5],[1,0.5]];portConstraint=eastwest;labelBackgroundColor=none;rounded=1;" vertex="1" parent="AdT45wlRLXkSQNVpqV4I-115">
          <mxGeometry y="40" width="240" height="40" as="geometry" />
        </mxCell>
        <mxCell id="AdT45wlRLXkSQNVpqV4I-122" value="" style="shape=partialRectangle;html=1;whiteSpace=wrap;connectable=0;overflow=hidden;fillColor=#d5e8d4;top=1;left=1;bottom=1;right=1;pointerEvents=1;labelBackgroundColor=none;rounded=1;strokeColor=#82b366;" vertex="1" parent="AdT45wlRLXkSQNVpqV4I-121">
          <mxGeometry width="60" height="40" as="geometry">
            <mxRectangle width="60" height="40" as="alternateBounds" />
          </mxGeometry>
        </mxCell>
        <mxCell id="AdT45wlRLXkSQNVpqV4I-123" value="" style="shape=partialRectangle;html=1;whiteSpace=wrap;connectable=0;overflow=hidden;fillColor=#f8cecc;top=1;left=1;bottom=1;right=1;pointerEvents=1;labelBackgroundColor=none;rounded=1;strokeColor=#b85450;" vertex="1" parent="AdT45wlRLXkSQNVpqV4I-121">
          <mxGeometry x="60" width="60" height="40" as="geometry">
            <mxRectangle width="60" height="40" as="alternateBounds" />
          </mxGeometry>
        </mxCell>
        <mxCell id="AdT45wlRLXkSQNVpqV4I-124" value="" style="shape=partialRectangle;html=1;whiteSpace=wrap;connectable=0;overflow=hidden;fillColor=#f8cecc;top=1;left=1;bottom=1;right=1;pointerEvents=1;labelBackgroundColor=none;rounded=1;strokeColor=#b85450;" vertex="1" parent="AdT45wlRLXkSQNVpqV4I-121">
          <mxGeometry x="120" width="60" height="40" as="geometry">
            <mxRectangle width="60" height="40" as="alternateBounds" />
          </mxGeometry>
        </mxCell>
        <mxCell id="AdT45wlRLXkSQNVpqV4I-125" value="" style="shape=partialRectangle;html=1;whiteSpace=wrap;connectable=0;overflow=hidden;fillColor=#d5e8d4;top=1;left=1;bottom=1;right=1;pointerEvents=1;labelBackgroundColor=none;rounded=1;strokeColor=#82b366;" vertex="1" parent="AdT45wlRLXkSQNVpqV4I-121">
          <mxGeometry x="180" width="60" height="40" as="geometry">
            <mxRectangle width="60" height="40" as="alternateBounds" />
          </mxGeometry>
        </mxCell>
        <mxCell id="AdT45wlRLXkSQNVpqV4I-126" value="" style="shape=tableRow;horizontal=0;startSize=0;swimlaneHead=0;swimlaneBody=0;top=1;left=0;bottom=0;right=0;collapsible=0;dropTarget=0;fillColor=none;points=[[0,0.5],[1,0.5]];portConstraint=eastwest;labelBackgroundColor=none;rounded=1;" vertex="1" parent="AdT45wlRLXkSQNVpqV4I-115">
          <mxGeometry y="80" width="240" height="40" as="geometry" />
        </mxCell>
        <mxCell id="AdT45wlRLXkSQNVpqV4I-127" value="" style="shape=partialRectangle;html=1;whiteSpace=wrap;connectable=0;overflow=hidden;fillColor=#d5e8d4;top=1;left=0;bottom=0;right=0;pointerEvents=1;labelBackgroundColor=none;rounded=1;strokeColor=#82b366;" vertex="1" parent="AdT45wlRLXkSQNVpqV4I-126">
          <mxGeometry width="60" height="40" as="geometry">
            <mxRectangle width="60" height="40" as="alternateBounds" />
          </mxGeometry>
        </mxCell>
        <mxCell id="AdT45wlRLXkSQNVpqV4I-128" value="" style="shape=partialRectangle;html=1;whiteSpace=wrap;connectable=0;overflow=hidden;fillColor=none;top=1;left=0;bottom=0;right=0;pointerEvents=1;labelBackgroundColor=none;rounded=1;" vertex="1" parent="AdT45wlRLXkSQNVpqV4I-126">
          <mxGeometry x="60" width="60" height="40" as="geometry">
            <mxRectangle width="60" height="40" as="alternateBounds" />
          </mxGeometry>
        </mxCell>
        <mxCell id="AdT45wlRLXkSQNVpqV4I-129" value="" style="shape=partialRectangle;html=1;whiteSpace=wrap;connectable=0;overflow=hidden;fillColor=none;top=1;left=0;bottom=0;right=0;pointerEvents=1;labelBackgroundColor=none;rounded=1;" vertex="1" parent="AdT45wlRLXkSQNVpqV4I-126">
          <mxGeometry x="120" width="60" height="40" as="geometry">
            <mxRectangle width="60" height="40" as="alternateBounds" />
          </mxGeometry>
        </mxCell>
        <mxCell id="AdT45wlRLXkSQNVpqV4I-130" value="" style="shape=partialRectangle;html=1;whiteSpace=wrap;connectable=0;overflow=hidden;fillColor=none;top=1;left=0;bottom=0;right=0;pointerEvents=1;labelBackgroundColor=none;rounded=1;" vertex="1" parent="AdT45wlRLXkSQNVpqV4I-126">
          <mxGeometry x="180" width="60" height="40" as="geometry">
            <mxRectangle width="60" height="40" as="alternateBounds" />
          </mxGeometry>
        </mxCell>
        <mxCell id="AdT45wlRLXkSQNVpqV4I-131" value="" style="shape=table;startSize=0;container=1;collapsible=0;childLayout=tableLayout;labelBackgroundColor=none;rounded=1;top=1;" vertex="1" parent="1">
          <mxGeometry x="410" y="220" width="240" height="120" as="geometry" />
        </mxCell>
        <mxCell id="AdT45wlRLXkSQNVpqV4I-132" value="" style="shape=tableRow;horizontal=0;startSize=0;swimlaneHead=0;swimlaneBody=0;top=1;left=0;bottom=0;right=0;collapsible=0;dropTarget=0;fillColor=none;points=[[0,0.5],[1,0.5]];portConstraint=eastwest;labelBackgroundColor=none;rounded=1;" vertex="1" parent="AdT45wlRLXkSQNVpqV4I-131">
          <mxGeometry width="240" height="40" as="geometry" />
        </mxCell>
        <mxCell id="AdT45wlRLXkSQNVpqV4I-133" value="" style="shape=partialRectangle;html=1;whiteSpace=wrap;connectable=0;overflow=hidden;fillColor=#d5e8d4;top=1;left=1;bottom=1;right=1;pointerEvents=1;labelBackgroundColor=none;rounded=1;strokeColor=#82b366;" vertex="1" parent="AdT45wlRLXkSQNVpqV4I-132">
          <mxGeometry width="60" height="40" as="geometry">
            <mxRectangle width="60" height="40" as="alternateBounds" />
          </mxGeometry>
        </mxCell>
        <mxCell id="AdT45wlRLXkSQNVpqV4I-134" value="" style="shape=partialRectangle;html=1;whiteSpace=wrap;connectable=0;overflow=hidden;fillColor=#d5e8d4;top=1;left=1;bottom=1;right=1;pointerEvents=1;labelBackgroundColor=none;rounded=1;strokeColor=#82b366;" vertex="1" parent="AdT45wlRLXkSQNVpqV4I-132">
          <mxGeometry x="60" width="60" height="40" as="geometry">
            <mxRectangle width="60" height="40" as="alternateBounds" />
          </mxGeometry>
        </mxCell>
        <mxCell id="AdT45wlRLXkSQNVpqV4I-135" value="" style="shape=partialRectangle;html=1;whiteSpace=wrap;connectable=0;overflow=hidden;fillColor=#d5e8d4;top=1;left=1;bottom=1;right=1;pointerEvents=1;labelBackgroundColor=none;rounded=1;strokeColor=#82b366;" vertex="1" parent="AdT45wlRLXkSQNVpqV4I-132">
          <mxGeometry x="120" width="60" height="40" as="geometry">
            <mxRectangle width="60" height="40" as="alternateBounds" />
          </mxGeometry>
        </mxCell>
        <mxCell id="AdT45wlRLXkSQNVpqV4I-136" value="" style="shape=partialRectangle;html=1;whiteSpace=wrap;connectable=0;overflow=hidden;fillColor=#d5e8d4;top=1;left=1;bottom=1;right=1;pointerEvents=1;labelBackgroundColor=none;rounded=1;strokeColor=#82b366;" vertex="1" parent="AdT45wlRLXkSQNVpqV4I-132">
          <mxGeometry x="180" width="60" height="40" as="geometry">
            <mxRectangle width="60" height="40" as="alternateBounds" />
          </mxGeometry>
        </mxCell>
        <mxCell id="AdT45wlRLXkSQNVpqV4I-137" value="" style="shape=tableRow;horizontal=0;startSize=0;swimlaneHead=0;swimlaneBody=0;top=1;left=0;bottom=0;right=0;collapsible=0;dropTarget=0;fillColor=none;points=[[0,0.5],[1,0.5]];portConstraint=eastwest;labelBackgroundColor=none;rounded=1;" vertex="1" parent="AdT45wlRLXkSQNVpqV4I-131">
          <mxGeometry y="40" width="240" height="40" as="geometry" />
        </mxCell>
        <mxCell id="AdT45wlRLXkSQNVpqV4I-138" value="" style="shape=partialRectangle;html=1;whiteSpace=wrap;connectable=0;overflow=hidden;fillColor=#d5e8d4;top=1;left=1;bottom=1;right=1;pointerEvents=1;labelBackgroundColor=none;rounded=1;strokeColor=#82b366;" vertex="1" parent="AdT45wlRLXkSQNVpqV4I-137">
          <mxGeometry width="60" height="40" as="geometry">
            <mxRectangle width="60" height="40" as="alternateBounds" />
          </mxGeometry>
        </mxCell>
        <mxCell id="AdT45wlRLXkSQNVpqV4I-139" value="" style="shape=partialRectangle;html=1;whiteSpace=wrap;connectable=0;overflow=hidden;top=1;left=1;bottom=1;right=1;pointerEvents=1;labelBackgroundColor=none;rounded=1;" vertex="1" parent="AdT45wlRLXkSQNVpqV4I-137">
          <mxGeometry x="60" width="60" height="40" as="geometry">
            <mxRectangle width="60" height="40" as="alternateBounds" />
          </mxGeometry>
        </mxCell>
        <mxCell id="AdT45wlRLXkSQNVpqV4I-140" value="" style="shape=partialRectangle;html=1;whiteSpace=wrap;connectable=0;overflow=hidden;top=1;left=1;bottom=1;right=1;pointerEvents=1;labelBackgroundColor=none;rounded=1;" vertex="1" parent="AdT45wlRLXkSQNVpqV4I-137">
          <mxGeometry x="120" width="60" height="40" as="geometry">
            <mxRectangle width="60" height="40" as="alternateBounds" />
          </mxGeometry>
        </mxCell>
        <mxCell id="AdT45wlRLXkSQNVpqV4I-141" value="" style="shape=partialRectangle;html=1;whiteSpace=wrap;connectable=0;overflow=hidden;top=1;left=1;bottom=1;right=1;pointerEvents=1;labelBackgroundColor=none;rounded=1;" vertex="1" parent="AdT45wlRLXkSQNVpqV4I-137">
          <mxGeometry x="180" width="60" height="40" as="geometry">
            <mxRectangle width="60" height="40" as="alternateBounds" />
          </mxGeometry>
        </mxCell>
        <mxCell id="AdT45wlRLXkSQNVpqV4I-142" value="" style="shape=tableRow;horizontal=0;startSize=0;swimlaneHead=0;swimlaneBody=0;top=1;left=0;bottom=0;right=0;collapsible=0;dropTarget=0;fillColor=none;points=[[0,0.5],[1,0.5]];portConstraint=eastwest;labelBackgroundColor=none;rounded=1;" vertex="1" parent="AdT45wlRLXkSQNVpqV4I-131">
          <mxGeometry y="80" width="240" height="40" as="geometry" />
        </mxCell>
        <mxCell id="AdT45wlRLXkSQNVpqV4I-143" value="" style="shape=partialRectangle;html=1;whiteSpace=wrap;connectable=0;overflow=hidden;top=1;left=0;bottom=0;right=0;pointerEvents=1;labelBackgroundColor=none;rounded=1;" vertex="1" parent="AdT45wlRLXkSQNVpqV4I-142">
          <mxGeometry width="60" height="40" as="geometry">
            <mxRectangle width="60" height="40" as="alternateBounds" />
          </mxGeometry>
        </mxCell>
        <mxCell id="AdT45wlRLXkSQNVpqV4I-144" value="" style="shape=partialRectangle;html=1;whiteSpace=wrap;connectable=0;overflow=hidden;fillColor=none;top=1;left=0;bottom=0;right=0;pointerEvents=1;labelBackgroundColor=none;rounded=1;" vertex="1" parent="AdT45wlRLXkSQNVpqV4I-142">
          <mxGeometry x="60" width="60" height="40" as="geometry">
            <mxRectangle width="60" height="40" as="alternateBounds" />
          </mxGeometry>
        </mxCell>
        <mxCell id="AdT45wlRLXkSQNVpqV4I-145" value="" style="shape=partialRectangle;html=1;whiteSpace=wrap;connectable=0;overflow=hidden;fillColor=none;top=1;left=0;bottom=0;right=0;pointerEvents=1;labelBackgroundColor=none;rounded=1;" vertex="1" parent="AdT45wlRLXkSQNVpqV4I-142">
          <mxGeometry x="120" width="60" height="40" as="geometry">
            <mxRectangle width="60" height="40" as="alternateBounds" />
          </mxGeometry>
        </mxCell>
        <mxCell id="AdT45wlRLXkSQNVpqV4I-146" value="" style="shape=partialRectangle;html=1;whiteSpace=wrap;connectable=0;overflow=hidden;fillColor=none;top=1;left=0;bottom=0;right=0;pointerEvents=1;labelBackgroundColor=none;rounded=1;" vertex="1" parent="AdT45wlRLXkSQNVpqV4I-142">
          <mxGeometry x="180" width="60" height="40" as="geometry">
            <mxRectangle width="60" height="40" as="alternateBounds" />
          </mxGeometry>
        </mxCell>
        <mxCell id="AdT45wlRLXkSQNVpqV4I-147" value="对象区" style="text;html=1;align=center;verticalAlign=middle;resizable=0;points=[];autosize=1;strokeColor=none;fillColor=none;fontFamily=Helvetica;fontSize=14;fontColor=default;labelBackgroundColor=none;" vertex="1" parent="1">
          <mxGeometry x="165" y="180" width="70" height="30" as="geometry" />
        </mxCell>
        <mxCell id="AdT45wlRLXkSQNVpqV4I-148" value="空闲区" style="text;html=1;align=center;verticalAlign=middle;resizable=0;points=[];autosize=1;strokeColor=none;fillColor=none;fontFamily=Helvetica;fontSize=14;fontColor=default;labelBackgroundColor=none;" vertex="1" parent="1">
          <mxGeometry x="485" y="180" width="70" height="30" as="geometry" />
        </mxCell>
      </root>
    </mxGraphModel>
  </diagram>
</mxfile>
